<svg width="25" height="24" viewBox="0 0 25 24" fill="none" xmlns="http://www.w3.org/2000/svg">
<path d="M20.5781 8.68994V3.99994H15.8881L12.5781 0.689941L9.26807 3.99994H4.57807V8.68994L1.26807 11.9999L4.57807 15.3099V19.9999H9.26807L12.5781 23.3099L15.8881 19.9999H20.5781V15.3099L23.8881 11.9999L20.5781 8.68994ZM12.5781 17.9999C11.6881 17.9999 10.8381 17.7999 10.0781 17.4499C12.1381 16.4999 13.5781 14.4199 13.5781 11.9999C13.5781 9.57994 12.1381 7.49994 10.0781 6.54994C10.8381 6.19994 11.6881 5.99994 12.5781 5.99994C15.8881 5.99994 18.5781 8.68994 18.5781 11.9999C18.5781 15.3099 15.8881 17.9999 12.5781 17.9999Z" fill="white"/>
</svg>
