<svg width="14" height="14" viewBox="0 0 14 14" fill="none" xmlns="http://www.w3.org/2000/svg">
<circle cx="8.0001" cy="8.00001" r="5.05" stroke="#727272" stroke-width="1.2"/>
<path d="M8.35467 9.21882H6.81556V8.24805H8.35467C8.59252 8.24805 8.78612 8.20933 8.93547 8.13189C9.08482 8.05169 9.19406 7.94106 9.26321 7.80001C9.33235 7.65896 9.36692 7.49993 9.36692 7.32293C9.36692 7.14315 9.33235 6.97583 9.26321 6.82095C9.19406 6.66607 9.08482 6.54161 8.93547 6.44758C8.78612 6.35355 8.59252 6.30653 8.35467 6.30653H7.24701V11.3719H6.00244V5.33162H8.35467C8.82761 5.33162 9.23278 5.41736 9.5702 5.58883C9.91038 5.75754 10.1704 5.99124 10.3501 6.28994C10.5299 6.58863 10.6198 6.9302 10.6198 7.31463C10.6198 7.70459 10.5299 8.04201 10.3501 8.32688C10.1704 8.61174 9.91038 8.83162 9.5702 8.9865C9.23278 9.14138 8.82761 9.21882 8.35467 9.21882Z" fill="#727272"/>
</svg>
