<svg width="25" height="24" viewBox="0 0 25 24" fill="none" xmlns="http://www.w3.org/2000/svg">
<path d="M12.0781 2C7.38812 2 3.57812 5.81 3.57812 10.5C3.57812 15.19 7.38812 19 12.0781 19H12.5781V22C17.4381 19.66 20.5781 15 20.5781 10.5C20.5781 5.81 16.7681 2 12.0781 2ZM13.0781 16.5H11.0781V14.5H13.0781V16.5ZM13.0781 13H11.0781C11.0781 9.75 14.0781 10 14.0781 8C14.0781 6.9 13.1781 6 12.0781 6C10.9781 6 10.0781 6.9 10.0781 8H8.07812C8.07812 5.79 9.86812 4 12.0781 4C14.2881 4 16.0781 5.79 16.0781 8C16.0781 10.5 13.0781 10.75 13.0781 13Z" fill="white"/>
</svg>
