<svg width="23" height="23" viewBox="0 0 23 23" fill="none" xmlns="http://www.w3.org/2000/svg">
<path d="M3.86768 10.206C3.68534 10.206 3.51047 10.1336 3.38154 10.0047C3.25261 9.87573 3.18018 9.70086 3.18018 9.51852V4.0199C3.18018 3.83756 3.25261 3.66269 3.38154 3.53376C3.51047 3.40483 3.68534 3.3324 3.86768 3.3324H9.36768C9.55001 3.3324 9.72488 3.40483 9.85381 3.53376C9.98274 3.66269 10.0552 3.83756 10.0552 4.0199V9.51852C10.0552 9.70086 9.98274 9.87573 9.85381 10.0047C9.72488 10.1336 9.55001 10.206 9.36768 10.206H3.86768ZM13.4927 10.206C13.3103 10.206 13.1355 10.1336 13.0065 10.0047C12.8776 9.87573 12.8052 9.70086 12.8052 9.51852V4.0199C12.8052 3.83756 12.8776 3.66269 13.0065 3.53376C13.1355 3.40483 13.3103 3.3324 13.4927 3.3324H18.9913C19.1736 3.3324 19.3485 3.40483 19.4774 3.53376C19.6064 3.66269 19.6788 3.83756 19.6788 4.0199V9.51852C19.6788 9.70086 19.6064 9.87573 19.4774 10.0047C19.3485 10.1336 19.1736 10.206 18.9913 10.206H13.4927ZM3.86768 19.831C3.68534 19.831 3.51047 19.7586 3.38154 19.6297C3.25261 19.5007 3.18018 19.3259 3.18018 19.1435V13.6435C3.18018 13.4612 3.25261 13.2863 3.38154 13.1574C3.51047 13.0285 3.68534 12.956 3.86768 12.956H9.36768C9.55001 12.956 9.72488 13.0285 9.85381 13.1574C9.98274 13.2863 10.0552 13.4612 10.0552 13.6435V19.1435C10.0552 19.3259 9.98274 19.5007 9.85381 19.6297C9.72488 19.7586 9.55001 19.831 9.36768 19.831H3.86768ZM13.4927 19.831C13.3103 19.831 13.1355 19.7586 13.0065 19.6297C12.8776 19.5007 12.8052 19.3259 12.8052 19.1435V13.6435C12.8052 13.4612 12.8776 13.2863 13.0065 13.1574C13.1355 13.0285 13.3103 12.956 13.4927 12.956H18.9913C19.1736 12.956 19.3485 13.0285 19.4774 13.1574C19.6064 13.2863 19.6788 13.4612 19.6788 13.6435V19.1435C19.6788 19.3259 19.6064 19.5007 19.4774 19.6297C19.3485 19.7586 19.1736 19.831 18.9913 19.831H13.4927Z" fill="#727272"/>
</svg>
