<?xml version="1.0" encoding="utf-8"?>
<!-- Generator: Adobe Illustrator 26.0.3, SVG Export Plug-In . SVG Version: 6.00 Build 0)  -->
<svg version="1.1" id="레이어_1" xmlns="http://www.w3.org/2000/svg" xmlns:xlink="http://www.w3.org/1999/xlink" x="0px"
	 y="0px" viewBox="0 0 396.54 75.83" style="enable-background:new 0 0 396.54 75.83;" xml:space="preserve">
<style type="text/css">
	.st0{fill:#FFFFFF;}
	.st1{fill:#040000;}
	.st2{fill:#1F2020;}
	.st3{fill:none;stroke:#040000;stroke-width:1.2;}
	.st4{clip-path:url(#SVGID_00000101812535281240163710000013760091711115354534_);}
	.st5{fill:#FFFFFF;stroke:#DFDFDF;}
	.st6{fill:#E26E30;}
	.st7{fill:#B7B7B8;}
</style>
<g>
	<path class="st0" d="M42.81,1.31c-4.69,0-8.5,3.81-8.5,8.5s3.81,8.5,8.5,8.5h0.5v3c4.86-2.34,8-7,8-11.5
		C51.31,5.12,47.5,1.31,42.81,1.31z M43.81,15.81h-2v-2h2V15.81z M43.81,12.31h-2c0-3.25,3-3,3-5c0-1.1-0.9-2-2-2s-2,0.9-2,2h-2
		c0-2.21,1.79-4,4-4s4,1.79,4,4C46.81,9.81,43.81,10.06,43.81,12.31z"/>
	<path class="st0" d="M19.31,8V3.31h-4.69L11.31,0L8,3.31H3.31V8L0,11.31l3.31,3.31v4.69H8l3.31,3.31l3.31-3.31h4.69v-4.69
		l3.31-3.31L19.31,8z M11.31,17.31c-0.89,0-1.74-0.2-2.5-0.55c2.06-0.95,3.5-3.03,3.5-5.45c0-2.42-1.44-4.5-3.5-5.45
		c0.76-0.35,1.61-0.55,2.5-0.55c3.31,0,6,2.69,6,6C17.31,14.62,14.62,17.31,11.31,17.31z"/>
</g>
<g>
	<path class="st1" d="M111.29,7.6l4.59,4.58l4.59-4.58l1.41,1.41l-6,6l-6-6L111.29,7.6z"/>
</g>
<g>
	<path class="st1" d="M157.28,15.9l4.58-4.59l-4.58-4.59l1.41-1.41l6,6l-6,6L157.28,15.9z"/>
</g>
<g>
	<path class="st1" d="M201.51,15.01l4.59-4.58l4.59,4.58l1.41-1.41l-6-6l-6,6L201.51,15.01z"/>
</g>
<g>
	<path class="st1" d="M248,15.18l-4.17-4.17l-1.42,1.41l5.59,5.59l12-12l-1.41-1.41L248,15.18z"/>
</g>
<g>
	<path class="st2" d="M306.31,3.31c0-1.1-0.89-2-1.99-2h-16c-1.1,0-2,0.9-2,2v12c0,1.1,0.9,2,2,2h14l4,4L306.31,3.31z M302.32,13.31
		h-12v-2h12V13.31z M302.32,10.31h-12v-2h12V10.31z M302.32,7.31h-12v-2h12V7.31z"/>
</g>
<g>
	<path class="st1" d="M338.23,15.18l-4.17-4.17l-1.42,1.41l5.59,5.59l12-12l-1.41-1.41L338.23,15.18z"/>
</g>
<g>
	<path class="st1" d="M378.44,11.31c0-1.71,1.39-3.1,3.1-3.1h4v-1.9h-4c-2.76,0-5,2.24-5,5s2.24,5,5,5h4v-1.9h-4
		C379.83,14.41,378.44,13.02,378.44,11.31z M382.54,12.31h8v-2h-8V12.31z M391.54,6.31h-4v1.9h4c1.71,0,3.1,1.39,3.1,3.1
		s-1.39,3.1-3.1,3.1h-4v1.9h4c2.76,0,5-2.24,5-5S394.3,6.31,391.54,6.31z"/>
</g>
<g>
	<path class="st1" d="M10.66,48.83h13v2h-13V48.83z M5.66,48.33h3v3h-3V48.33z M5.66,54.33h3v3h-3V54.33z M5.66,60.33h3v3h-3V60.33z
		 M10.66,54.83h13v2h-13V54.83z M10.66,60.83h13v2h-13V60.83z"/>
</g>
<g>
	<path class="st1" d="M51.52,54.33c-0.2,0-0.39-0.08-0.53-0.22c-0.14-0.14-0.22-0.33-0.22-0.53v-6c0-0.2,0.08-0.39,0.22-0.53
		c0.14-0.14,0.33-0.22,0.53-0.22h6c0.2,0,0.39,0.08,0.53,0.22c0.14,0.14,0.22,0.33,0.22,0.53v6c0,0.2-0.08,0.39-0.22,0.53
		c-0.14,0.14-0.33,0.22-0.53,0.22H51.52z M62.02,54.33c-0.2,0-0.39-0.08-0.53-0.22c-0.14-0.14-0.22-0.33-0.22-0.53v-6
		c0-0.2,0.08-0.39,0.22-0.53c0.14-0.14,0.33-0.22,0.53-0.22h6c0.2,0,0.39,0.08,0.53,0.22c0.14,0.14,0.22,0.33,0.22,0.53v6
		c0,0.2-0.08,0.39-0.22,0.53c-0.14,0.14-0.33,0.22-0.53,0.22H62.02z M51.52,64.83c-0.2,0-0.39-0.08-0.53-0.22
		c-0.14-0.14-0.22-0.33-0.22-0.53v-6c0-0.2,0.08-0.39,0.22-0.53c0.14-0.14,0.33-0.22,0.53-0.22h6c0.2,0,0.39,0.08,0.53,0.22
		c0.14,0.14,0.22,0.33,0.22,0.53v6c0,0.2-0.08,0.39-0.22,0.53c-0.14,0.14-0.33,0.22-0.53,0.22H51.52z M62.02,64.83
		c-0.2,0-0.39-0.08-0.53-0.22c-0.14-0.14-0.22-0.33-0.22-0.53v-6c0-0.2,0.08-0.39,0.22-0.53c0.14-0.14,0.33-0.22,0.53-0.22h6
		c0.2,0,0.39,0.08,0.53,0.22c0.14,0.14,0.22,0.33,0.22,0.53v6c0,0.2-0.08,0.39-0.22,0.53c-0.14,0.14-0.33,0.22-0.53,0.22H62.02z"/>
</g>
<g>
	<circle class="st3" cx="104.88" cy="55.83" r="5.05"/>
	<path class="st1" d="M105.23,57.05h-1.54v-0.97h1.54c0.24,0,0.43-0.04,0.58-0.12c0.15-0.08,0.26-0.19,0.33-0.33
		c0.07-0.14,0.1-0.3,0.1-0.48c0-0.18-0.03-0.35-0.1-0.5c-0.07-0.15-0.18-0.28-0.33-0.37c-0.15-0.09-0.34-0.14-0.58-0.14h-1.11v5.07
		h-1.24v-6.04h2.35c0.47,0,0.88,0.09,1.22,0.26c0.34,0.17,0.6,0.4,0.78,0.7c0.18,0.3,0.27,0.64,0.27,1.02
		c0,0.39-0.09,0.73-0.27,1.01c-0.18,0.28-0.44,0.5-0.78,0.66C106.11,56.97,105.7,57.05,105.23,57.05z"/>
</g>
<g>
	<g>
		<defs>
			<rect id="SVGID_1_" x="141.99" y="47.83" width="16" height="16"/>
		</defs>
		<clipPath id="SVGID_00000165213949259719981610000012534409453965919405_">
			<use xlink:href="#SVGID_1_"  style="overflow:visible;"/>
		</clipPath>
		<g style="clip-path:url(#SVGID_00000165213949259719981610000012534409453965919405_);">
			<circle class="st3" cx="149.99" cy="56.16" r="6.05"/>
			<path class="st1" d="M150.4,57.6h-1.81v-1.14h1.81c0.28,0,0.51-0.05,0.68-0.14c0.18-0.09,0.3-0.22,0.39-0.39
				c0.08-0.17,0.12-0.35,0.12-0.56c0-0.21-0.04-0.41-0.12-0.59c-0.08-0.18-0.21-0.33-0.39-0.44c-0.18-0.11-0.4-0.17-0.68-0.17h-1.3
				v5.96h-1.46v-7.11h2.77c0.56,0,1.03,0.1,1.43,0.3c0.4,0.2,0.71,0.47,0.92,0.83c0.21,0.35,0.32,0.75,0.32,1.21
				c0,0.46-0.11,0.86-0.32,1.19c-0.21,0.34-0.52,0.59-0.92,0.78C151.44,57.51,150.96,57.6,150.4,57.6z"/>
		</g>
	</g>
</g>
<g>
	<path class="st1" d="M196.6,46.83c-4.97,0-9,4.03-9,9h-3l3.89,3.89l0.07,0.14l4.04-4.03h-3c0-3.87,3.13-7,7-7c3.87,0,7,3.13,7,7
		s-3.13,7-7,7c-1.93,0-3.68-0.79-4.94-2.06l-1.42,1.42c1.63,1.63,3.87,2.64,6.36,2.64c4.97,0,9-4.03,9-9S201.57,46.83,196.6,46.83z
		 M195.6,51.83v5l4.28,2.54l0.72-1.21l-3.5-2.08v-4.25H195.6z"/>
</g>
<g>
	<path class="st1" d="M240.2,49.16c-3.68,0-6.66,2.99-6.66,6.67c0,3.68,2.98,6.67,6.66,6.67c3.69,0,6.67-2.99,6.67-6.67
		C246.88,52.15,243.89,49.16,240.2,49.16z M240.21,61.16c-2.95,0-5.33-2.39-5.33-5.33c0-2.95,2.39-5.33,5.33-5.33
		c2.95,0,5.33,2.39,5.33,5.33C245.54,58.77,243.16,61.16,240.21,61.16z"/>
	<path class="st1" d="M240.54,52.49h-1v4l3.5,2.1l0.5-0.82l-3-1.78V52.49z"/>
</g>
<g>
	<g>
		<circle class="st5" cx="285.32" cy="55.83" r="19.5"/>
		<path class="st6" d="M284.32,65.83c0,0.55,0.45,1,1,1c0.55,0,1-0.45,1-1H284.32z M286.03,45.12c-0.39-0.39-1.02-0.39-1.41,0
			l-6.36,6.36c-0.39,0.39-0.39,1.02,0,1.41c0.39,0.39,1.02,0.39,1.41,0l5.66-5.66l5.66,5.66c0.39,0.39,1.02,0.39,1.41,0
			c0.39-0.39,0.39-1.02,0-1.41L286.03,45.12z M286.32,65.83v-20h-2v20H286.32z"/>
	</g>
</g>
<g>
	<circle class="st5" cx="330.43" cy="55.83" r="11.5"/>
	<path class="st7" d="M330.43,48.58c4.14,0,7.5,3.36,7.5,7.5c0,4.14-3.36,7.5-7.5,7.5c-4.14,0-7.5-3.36-7.5-7.5
		c0-2.08,0.84-3.94,2.2-5.3l1.18,1.18c-1.06,1.05-1.72,2.51-1.72,4.12c0,3.22,2.61,5.83,5.83,5.83s5.83-2.61,5.83-5.83
		c0-3.23-2.61-5.83-5.83-5.83v2.5l-3.36-3.37l0.12-0.06l3.24-3.24V48.58z"/>
</g>
<g>
	<path class="st2" d="M375.54,45.83c-5.52,0-10,4.48-10,10s4.48,10,10,10c5.52,0,10-4.48,10-10S381.06,45.83,375.54,45.83z
		 M375.54,48.83c1.66,0,3,1.34,3,3s-1.34,3-3,3s-3-1.34-3-3S373.88,48.83,375.54,48.83z M375.54,63.03c-2.5,0-4.71-1.28-6-3.22
		c0.03-1.99,4-3.08,6-3.08c1.99,0,5.97,1.09,6,3.08C380.25,61.75,378.04,63.03,375.54,63.03z"/>
</g>
</svg>
